<svg xmlns="http://www.w3.org/2000/svg" width="1100" height="560" viewBox="0 0 1100 560">
<defs>
 <linearGradient id="bg" x1="0" x2="1" y1="0" y2="1"><stop stop-color="#070b09"/><stop offset="1" stop-color="#0c1511"/></linearGradient>
 <filter id="glow"><feGaussianBlur stdDeviation="5" result="b"/><feMerge><feMergeNode in="b"/><feMergeNode in="SourceGraphic"/></feMerge></filter>
 <style>
  .mono{font-family:ui-monospace,SFMono-Regular,Menlo,Consolas,"Liberation Mono",monospace}
  .g{fill:#66B78B}.muted{fill:#86a493}.white{fill:#eef7f1}.line{stroke:#66B78B;stroke-opacity:.22}
 </style>
</defs>
<rect width="1100" height="560" rx="18" fill="url(#bg)"/>
<g opacity=".11" stroke="#66B78B">
 <path d="M0 72H1100M0 144H1100M0 216H1100M0 288H1100M0 360H1100M0 432H1100M0 504H1100"/>
 <path d="M72 0V560M144 0V560M216 0V560M288 0V560M360 0V560M432 0V560M504 0V560M576 0V560M648 0V560M720 0V560M792 0V560M864 0V560M936 0V560M1008 0V560"/>
</g>
<rect x="28" y="28" width="1044" height="504" rx="12" fill="none" class="line"/>
<circle cx="53" cy="53" r="5" fill="#66B78B"/><circle cx="70" cy="53" r="5" fill="#3f7056"/><circle cx="87" cy="53" r="5" fill="#284a39"/>
<text x="112" y="57" class="mono muted" font-size="13">sahil@security-lab ~ profile.sh</text>
<text x="62" y="108" class="mono g" font-size="15">$ whoami</text>
<text x="62" y="141" class="mono white" font-size="30" font-weight="700">MUHAMMED SAHIL</text>
<text x="62" y="174" class="mono muted" font-size="16">Cybersecurity Engineer &amp; Full-Stack Developer</text>
<text x="62" y="217" class="mono g" font-size="15">$ focus --current</text>
<text x="62" y="245" class="mono white" font-size="14">security  /  full-stack  /  systems  /  AI</text>
<text x="62" y="288" class="mono g" font-size="15">$ status</text>
<text x="62" y="316" class="mono muted" font-size="13">building systems that are useful, inspectable,</text>
<text x="62" y="338" class="mono muted" font-size="13">and occasionally more over-engineered than necessary.</text>
<text x="62" y="388" class="mono g" font-size="15">$ ls featured-projects</text>
<text x="62" y="418" class="mono white" font-size="13">XEROVA   NYOTA-OS   WHO-KNOWS   ZLINE   BALLON</text>
<text x="62" y="468" class="mono g" font-size="15">$ _</text>
<rect x="80" y="457" width="9" height="18" fill="#66B78B" opacity=".9"><animate attributeName="opacity" values=".15;1;.15" dur="1s" repeatCount="indefinite"/></rect>
<g transform="translate(610,82)">
 <rect x="0" y="0" width="420" height="420" rx="12" fill="#050806" stroke="#66B78B" stroke-opacity=".18"/>
 <text x="16" y="24" class="mono muted" font-size="9">IDENTITY // ASCII RENDER</text>
 <g transform="translate(82,42)" class="mono" font-size="7.2" letter-spacing=".12" fill="#66B78B" xml:space="preserve">
<text x="0" y="0.0">             ⠒⠖⠴⠴⠖⠦</text>
<text x="0" y="8.0">           ⠦⠖⠖⠖⠖⠒⠒⠒⠖⠦⠖</text>
<text x="0" y="16.0">          ⠖⠖⠖⠦⠒⠆⠆⠒⠆⠆⠖⠦⠦</text>
<text x="0" y="24.0">         ⠖⠖⠒⠖⠖⠖⠖⠖⠖⠖⠖⠖⠖⠦⠦</text>
<text x="0" y="32.0">         ⠒⠆⠆⠆⠆⠖⠖⠒⠖⠆⠒⠖⠆⠒⠒</text>
<text x="0" y="40.0">         ⠆⠆⠆⠆⠦⠦⠖⠖⠖⠒⠆⠒⠆⠒⠖</text>
<text x="0" y="48.0">         ⠆⠆⠆⠒⠖⠦⠦⠖⠦⠖⠒⠆⠆⠖⠖</text>
<text x="0" y="56.0">          ⠆⠖⠒⠆⠒⠖⠆⠆⠒⠖⠆⠒⠴</text>
<text x="0" y="64.0">          ⠒⠖⠖⠒⠴⠶⠖⠖⠦⠦⠖⠖⠖</text>
<text x="0" y="72.0">          ⠖⠴⠶⠦⠴⠴⠦⠴⠶⠦⠖⠒</text>
<text x="0" y="80.0">          ⠖⠦⠖⠖⠒⠒⠖⠖⠒⠦⠖⠖</text>
<text x="0" y="88.0">          ⠒⠖⠖⠒⠖⠦⠖⠒⠒⠦⠖</text>
<text x="0" y="96.0">           ⠖⠖⠖⠖⠖⠖⠖⠦⠦⠖</text>
<text x="0" y="104.0">            ⠒⠒⠒⠆⠒⠖⠒⠆⠦⠿</text>
<text x="0" y="112.0">            ⠦⠆⠆⠆⠆⠆⠆⠆⠴⠷⠷</text>
<text x="0" y="120.0">          ⠿⠷⠴⠒⠒⠒⠆⠒⠆⠖⠶⠷⠷⠿⠿⠿</text>
<text x="0" y="128.0">       ⠿⠿⠿⠿⠷⠴⠆⠒⠒⠒⠆⠒⠶⠷⠿⠷⠿⠿⠿⠿⠿</text>
<text x="0" y="136.0">      ⠿⠿⠿⠿⠶⠴⠴⠒⠒⠒⠆⠒⠴⠶⠶⠶⠷⠿⠿⠿⠿⠿⠿⠿</text>
<text x="0" y="144.0">     ⠿⠿⠿⠿⠿⠶⠶⠴⠶⠖⠒⠖⠶⠴⠴⠴⠴⠷⠿⠿⠿⠿⠿⠿⠿⠿⠿</text>
<text x="0" y="152.0">    ⠿⠿⠿⠿⠿⠿⠷⠶⠶⠶⠦⠖⠴⠴⠴⠶⠷⠷⠿⠿⠿⠷⠿⠿⠿⠿⠿⠿⠿</text>
<text x="0" y="160.0">    ⠿⠿⠿⠿⠿⠿⠿⠶⠶⠶⠶⠴⠴⠴⠶⠿⠿⠿⠿⠿⠷⠿⠷⠷⠿⠿⠿⠿⠷</text>
<text x="0" y="168.0">    ⠿⠷⠷⠷⠷⠿⠿⠷⠶⠶⠴⠴⠴⠷⠿⠿⠿⠿⠿⠷⠿⠿⠷⠷⠿⠷⠷⠿⠿⠷</text>
<text x="0" y="176.0">   ⠷⠿⠷⠷⠷⠿⠿⠿⠿⠶⠷⠶⠴⠷⠿⠿⠿⠿⠿⠿⠿⠿⠷⠷⠿⠷⠷⠷⠷⠿⠷</text>
<text x="0" y="184.0">   ⠿⠿⠷⠿⠿⠿⠿⠿⠿⠷⠿⠿⠶⠷⠿⠿⠿⠿⠿⠿⠿⠿⠷⠷⠷⠶⠷⠷⠷⠿⠷</text>
<text x="0" y="192.0">   ⠷⠿⠶⠶⠶⠿⠿⠷⠷⠿⠷⠿⠿⠿⠿⠷⠿⠿⠿⠷⠷⠷⠶⠴⠴⠶⠷⠶⠷⠿⠷⠿</text>
<text x="0" y="200.0">  ⠿⠿⠷⠷⠴⠷⠿⠷⠷⠷⠷⠷⠷⠷⠷⠷⠷⠷⠿⠷⠷⠷⠶⠴⠴⠴⠷⠶⠶⠿⠷⠿⠿</text>
<text x="0" y="208.0">  ⠿⠿⠶⠶⠴⠶⠶⠷⠷⠶⠷⠷⠷⠷⠷⠷⠷⠷⠷⠷⠶⠷⠶⠴⠴⠴⠷⠶⠷⠷⠿⠿⠷</text>
<text x="0" y="216.0">  ⠿⠷⠶⠶⠶⠶⠶⠶⠴⠷⠷⠷⠿⠷⠷⠷⠷⠷⠷⠶⠷⠷⠶⠴⠦⠴⠷⠷⠿⠷⠶⠶⠷</text>
<text x="0" y="224.0">  ⠿⠿⠶⠶⠴⠶⠶⠶⠶⠷⠷⠿⠿⠷⠷⠷⠷⠷⠷⠶⠴⠶⠴⠴⠦⠴⠷⠶⠴⠴⠶⠷⠷</text>
<text x="0" y="232.0"> ⠷⠷⠿⠶⠶⠴⠶⠶⠶⠷⠷⠷⠿⠷⠷⠷⠷⠷⠷⠷⠷⠶⠶⠷⠶⠦⠦⠴⠴⠶⠶⠿⠿⠷⠷</text>
<text x="0" y="240.0"> ⠿⠷⠶⠷⠶⠴⠶⠶⠶⠿⠷⠷⠷⠷⠿⠿⠷⠷⠷⠷⠷⠷⠶⠷⠶⠦⠦⠴⠶⠷⠿⠷⠷⠿⠷</text>
<text x="0" y="248.0"> ⠷⠿⠷⠷⠶⠴⠶⠶⠷⠷⠷⠷⠷⠷⠷⠷⠷⠷⠷⠷⠷⠷⠶⠶⠶⠴⠦⠦⠶⠶⠷⠷⠷⠷⠷</text>
<text x="0" y="256.0"> ⠶⠿⠷⠶⠴⠴⠶⠷⠷⠷⠷⠷⠷⠷⠷⠷⠴⠶⠶⠶⠶⠷⠷⠷⠴⠴⠦⠴⠶⠷⠷⠷⠷⠷⠷</text>
<text x="0" y="264.0"> ⠷⠿⠿⠿⠷⠴⠶⠷⠷⠷⠷⠷⠷⠷⠷⠷⠷⠴⠦⠴⠶⠷⠷⠶⠴⠶⠴⠶⠷⠷⠷⠷⠷⠷</text>
<text x="0" y="272.0"> ⠷⠷⠷⠷⠷⠷⠷⠷⠷⠷⠷⠷⠷⠷⠷⠷⠷⠷⠶⠶⠷⠶⠶⠶⠴⠷⠴⠶⠿⠷⠷⠷⠷⠷⠶</text>
<text x="0" y="280.0">⠿⠿⠿⠿⠷⠷⠷⠷⠷⠷⠷⠷⠷⠷⠷⠷⠷⠷⠷⠷⠷⠶⠶⠷⠶⠶⠿⠶⠶⠷⠿⠿⠷⠷⠶⠶</text>
<text x="0" y="288.0">⠷⠿⠿⠿⠿⠿⠶⠶⠷⠷⠷⠷⠷⠶⠷⠷⠷⠷⠷⠷⠷⠶⠶⠷⠶⠷⠿⠷⠿⠿⠷⠷⠷⠷⠶</text>
<text x="0" y="296.0">⠷⠿⠿⠿⠿⠿⠶⠶⠷⠷⠷⠷⠷⠷⠷⠷⠷⠷⠷⠷⠷⠶⠷⠷⠶⠷⠷⠿⠿⠿⠷⠷⠷⠷⠷</text>
<text x="0" y="304.0">⠦⠦⠶⠷⠷⠷⠷⠶⠶⠷⠷⠷⠷⠶⠷⠷⠷⠷⠷⠷⠷⠿⠿⠶⠶⠿⠷⠷⠷⠿⠿⠷⠷⠷⠷</text>
<text x="0" y="312.0"> ⠖⠴⠶⠴⠖⠶⠷⠷⠶⠶⠷⠿⠷⠷⠷⠷⠷⠷⠷⠷⠿⠷⠶⠷⠿⠷⠴⠦⠖⠖⠦⠴⠶⠶</text>
 </g>
 <path d="M12 386H408" stroke="#66B78B" stroke-opacity=".14"/>
 <text x="16" y="404" class="mono muted" font-size="9">SECURITY / SYSTEMS / SOFTWARE</text>
 </g>
</svg>